<svg fill="#fff" height="448pt" viewBox="0 -64 448 448" width="448pt" xmlns="http://www.w3.org/2000/svg"><path d="m156 164.800781h-.046875c-1.304687.75-2.675781 1.375-4.097656 1.863281 4.925781 9.332032 12.488281 17.007813 21.746093 22.070313 10.582032 6.765625 23.351563 9.21875 35.6875 6.859375 1.667969-.4375 3.277344-1.070312 4.800782-1.882812l-54.496094-31.464844c-1.117188.964844-2.320312 1.820312-3.59375 2.554687zm0 0"/><path d="m120.425781 139.511719c-.96875-.070313-1.96875-.113281-2.976562-.113281-9.539063.257812-18.855469 2.960937-27.050781 7.847656-11.078126 5.832031-19.554688 15.628906-23.726563 27.433594-.464844 1.695312-.734375 3.4375-.800781 5.191406l54.527344-31.480469c-.265626-1.449219-.398438-2.917969-.398438-4.390625.003906-1.4375.136719-2.875.398438-4.289062.015624-.0625.007812-.125.027343-.199219zm0 0"/><path d="m144 32c-61.855469 0-112 50.144531-112 112s50.144531 112 112 112 112-50.144531 112-112c-.066406-61.828125-50.171875-111.933594-112-112zm90.046875 164c-4.5625 7.601562-12.007813 13.03125-20.640625 15.054688-4.121094 1.085937-8.367188 1.621093-12.628906 1.601562-12.40625-.238281-24.535156-3.691406-35.203125-10.023438-14.578125-7.816406-25.652344-20.878906-30.972657-36.542968-2.21875-.972656-4.273437-2.285156-6.089843-3.890625l-63.632813 36.730469c-3.816406 2.199218-8.695312.898437-10.910156-2.914063-4.332031-7.765625-5.324219-16.953125-2.753906-25.464844 5.21875-15.949219 16.394531-29.265625 31.199218-37.167969 14.070313-8.691406 30.914063-11.71875 47.128907-8.472656 1.964843-1.449218 4.144531-2.589844 6.457031-3.375v-73.535156c0-4.417969 3.582031-8 8-8 22.398438 0 40 24.601562 40 56 .480469 16.558594-5.328125 32.683594-16.257812 45.128906.144531.949219.230468 1.910156.257812 2.871094-.0625 1.445312-.25 2.882812-.566406 4.296875l63.6875 36.800781c3.8125 2.207032 5.121094 7.082032 2.925781 10.902344zm0 0"/><path d="m155.449219 122.984375c.414062.230469.796875.472656 1.230469.726563.792968.503906 1.5625 1.054687 2.296874 1.640624.230469.191407.496094.328126.71875.519532 5.621094-8.933594 8.507813-19.316406 8.304688-29.871094 0-17.03125-6.785156-32-16-37.601562v63.007812c.289062.105469.550781.273438.839844.394531.894531.339844 1.765625.734375 2.609375 1.183594zm0 0"/><path d="m304 240c0 4.417969 3.582031 8 8 8h96c4.417969 0 8-3.582031 8-8v-48h-112zm0 0"/><path d="m151.550781 141.425781c-.933593-2.761719-3.300781-4.789062-6.171875-5.289062-2.867187-.5-5.78125.609375-7.59375 2.886719-1.761718 2.210937-2.222656 5.183593-1.21875 7.824218 1 2.640625 3.324219 4.554688 6.105469 5.039063h.265625c.53125.058593 1.066406.058593 1.597656 0 .464844-.023438.921875-.085938 1.375-.183594.195313-.046875.371094-.109375.554688-.175781.496094-.152344.976562-.351563 1.429687-.597656.21875-.136719.429688-.285157.632813-.441407.371094-.238281.71875-.507812 1.046875-.800781.535156-.527344 1-1.117188 1.386719-1.757812.679687-1.199219 1.035156-2.550782 1.039062-3.929688.023438-.878906-.128906-1.753906-.449219-2.574219zm0 0"/><path d="m360 304h48v16h-48zm0 0"/><path d="m304 112h112v64h-112zm0 0"/><path d="m448 280v-272c0-4.417969-3.582031-8-8-8h-432c-4.417969 0-8 3.582031-8 8v272c0 4.417969 3.582031 8 8 8h432c4.417969 0 8-3.582031 8-8zm-304-8c-70.691406 0-128-57.308594-128-128s57.308594-128 128-128 128 57.308594 128 128c-.082031 70.65625-57.34375 127.917969-128 128zm288-32c0 13.253906-10.746094 24-24 24h-96c-13.253906 0-24-10.746094-24-24v-192c0-13.253906 10.746094-24 24-24h96c13.253906 0 24 10.746094 24 24zm0 0"/><path d="m40 304h48v16h-48zm0 0"/><path d="m408 40h-96c-4.417969 0-8 3.582031-8 8v48h112v-48c0-4.417969-3.582031-8-8-8zm0 0"/></svg>