<svg fill="#fff" id="Capa_1" enable-background="new 0 0 512 512" height="512" viewBox="0 0 512 512" width="512" xmlns="http://www.w3.org/2000/svg"><g><path d="m497 332h-15v-60h-180c0 3.081 0 63.249 0 60h-15c-8.291 0-15 6.709-15 15v30c0 8.291 6.709 15 15 15h210c8.291 0 15-6.709 15-15v-30c0-8.291-6.709-15-15-15z"/><path d="m92 15c0-8.291-6.709-15-15-15s-15 6.709-15 15v47h-47c-8.291 0-15 6.709-15 15v150c0 8.291 6.709 15 15 15h107v-180h-30z"/><path d="m437 422c-8.291 0-15 6.709-15 15v60c0 8.291 6.709 15 15 15s15-6.709 15-15v-60c0-8.291-6.709-15-15-15z"/><path d="m347 422c-8.291 0-15 6.709-15 15v60c0 8.291 6.709 15 15 15s15-6.709 15-15v-60c0-8.291-6.709-15-15-15z"/><path d="m317 62h-15v158.789l120.126-120.126c-29.734-24.611-66.253-38.663-105.126-38.663z"/><path d="m482 242v-15c0-38.833-14.03-75.319-38.672-105.117l-120.117 120.117z"/><path d="m272 15c0-8.291-6.709-15-15-15s-15 6.709-15 15v47h-90v180h120c0-22.114 0-231.022 0-227z"/></g></svg>