<svg fill="#fff" id="Repair_Service" height="512" viewBox="0 0 64 64" width="512" xmlns="http://www.w3.org/2000/svg" data-name="Repair Service"><path d="m40.071 34.1-7.071 7.071 2.828 2.829 7.072-7.071a2 2 0 0 0 0-2.828 2.047 2.047 0 0 0 -2.829-.001z"/><path d="m36.535 46.121a1 1 0 0 1 -1.414 0l-2 2 5.825 5.834a2.055 2.055 0 0 0 2.841-.007 2.012 2.012 0 0 0 -.006-2.83l-5.12-5.118z"/><path d="m8 30h6v2h-6z"/><path d="m47 29h-30a1.016 1.016 0 0 0 -.87.5v.01a1.023 1.023 0 0 0 -.13.49v28a1 1 0 0 0 1 1h30a1 1 0 0 0 1-1v-28a1.023 1.023 0 0 0 -.13-.49 1 1 0 0 0 -.87-.51zm-3.8 20.7a4.005 4.005 0 0 1 -2.84 6.84 3.971 3.971 0 0 1 -2.827-1.173l-5.824-5.833-1.951 1.951v1a1 1 0 0 1 -.419.814l-4.95 3.536a1 1 0 0 1 -1.288-.107l-2.829-2.828a1 1 0 0 1 -.106-1.288l3.534-4.95a1 1 0 0 1 .814-.419h1l1.924-1.925a3.038 3.038 0 0 0 -1.947-.638 6.968 6.968 0 0 1 -5.658-2.888 7.076 7.076 0 0 1 -.636-7.124 1 1 0 0 1 .734-.554 1.009 1.009 0 0 1 .875.279l3.562 3.562 1.062-.355.354-1.06-3.56-3.552a1 1 0 0 1 .273-1.61 7.017 7.017 0 0 1 7.968 1.353 6.938 6.938 0 0 1 2.045 5.042 2.9 2.9 0 0 0 .146.915l6-6a4 4 0 1 1 5.656 5.656l-6.238 6.238z"/><path d="m50 30h6v2h-6z"/><path d="m30.879 41.879a1 1 0 0 1 0-1.414l.261-.261a4.947 4.947 0 0 1 -.63-2.453 4.959 4.959 0 0 0 -1.457-3.6 5.014 5.014 0 0 0 -4.243-1.405l2.826 2.82a1 1 0 0 1 .242 1.025l-.71 2.121a1 1 0 0 1 -.631.63l-2.12.71a1 1 0 0 1 -1.024-.241l-2.827-2.826a4.971 4.971 0 0 0 4.931 5.7h.028a5.081 5.081 0 0 1 3.329 1.215z"/><path d="m32.293 43.293-5.657 5.657a1 1 0 0 1 -.707.293h-.9l-2.744 3.841 1.631 1.631 3.842-2.744v-.9a1 1 0 0 1 .293-.707l5.656-5.657z"/><path d="m55 25h-46a1 1 0 0 0 -1 1v2h6.79a2.926 2.926 0 0 1 2.21-1h30a2.942 2.942 0 0 1 2.21 1h6.79v-2a1 1 0 0 0 -1-1z"/><path d="m59 4h-54a1 1 0 0 0 -1 1v26a1 1 0 0 0 1 1h1v-6a3.009 3.009 0 0 1 3-3h46a3.009 3.009 0 0 1 3 3v6h1a1 1 0 0 0 1-1v-26a1 1 0 0 0 -1-1zm-33 8h-17a3 3 0 0 1 0-6h17a3 3 0 0 1 0 6z"/><path d="m26 8h-17a1 1 0 0 0 0 2h17a1 1 0 0 0 0-2z"/></svg>