<?xml version="1.0" encoding="utf-8"?>
<!-- Generator: Adobe Illustrator 23.0.3, SVG Export Plug-In . SVG Version: 6.00 Build 0)  -->
<svg fill="#fff" version="1.1" id="Слой_1" xmlns="http://www.w3.org/2000/svg" xmlns:xlink="http://www.w3.org/1999/xlink" x="0px" y="0px"
	 viewBox="0 0 464 464" style="enable-background:new 0 0 464 464;" xml:space="preserve">
<path d="M64,424H40V296h24V424z M171.3,424l-24-24H80v-88h83.3l32-32H296c4.4,0,8,3.6,8,8s-3.6,8-8,8h-83.3l-34.3,34.3l11.3,11.3
	l18.3-18.3V424H171.3z M336,384c0,4.4-3.6,8-8,8h-64c-4.4,0-8-3.6-8-8s3.6-8,8-8h64C332.4,376,336,379.6,336,384z M264,360
	c-4.4,0-8-3.6-8-8s3.6-8,8-8h64c4.4,0,8,3.6,8,8s-3.6,8-8,8H264z M328,328h-64c-4.4,0-8-3.6-8-8s3.6-8,8-8h64c4.4,0,8,3.6,8,8
	S332.4,328,328,328z M220.7,184h38.6l12.7-12.7V136c8.8,0,16,7.2,16,16v36.7L260.7,216h-41.4L192,188.7V152c0-8.8,7.2-16,16-16v35.3
	L220.7,184z M224,232h32v32h-32V232z M272,227.3l32-32V152c0-17.6-14.4-32-32-32h-16v44.7l-3.3,3.3h-25.4l-3.3-3.3V120h-16
	c-17.6,0-32,14.4-32,32v43.3l32,32V264h-19.3l-0.5,0.5C160.9,246.9,144,216.7,144,184c0-52.9,43.1-96,96-96s96,43.1,96,96
	c0,32.4-16.2,62.1-43.3,80H272V227.3z M319.6,284.2c-0.9-5.7-3.8-10.6-8-14.2c25.5-21.2,40.4-52.3,40.4-86c0-61.8-50.2-112-112-112
	s-112,50.2-112,112c0,37,18.4,71.4,48.5,92.2L165,287.7c-33.2-24.1-53-62.6-53-103.7c0-70.6,57.4-128,128-128s128,57.4,128,128
	C368,223.5,350.1,260,319.6,284.2z M240,464c-8.8,0-16-7.2-16-16V312h17.5c-0.9,2.5-1.5,5.2-1.5,8c0,6.2,2.4,11.7,6.2,16
	c-3.8,4.3-6.2,9.8-6.2,16s2.4,11.7,6.2,16c-3.8,4.3-6.2,9.8-6.2,16s2.4,11.7,6.2,16c-3.8,4.3-6.2,9.8-6.2,16
	c0,10.4,6.7,19.2,16,22.5v9.5C256,456.8,248.8,464,240,464z M328,424h-64c-4.4,0-8-3.6-8-8s3.6-8,8-8h64c4.4,0,8,3.6,8,8
	S332.4,424,328,424z M394.3,289.9l-47.3,47.6c-0.4-0.5-0.8-1.1-1.3-1.6c3.8-4.3,6.2-9.8,6.2-16c0-12.5-9.6-22.6-21.8-23.8
	C364.2,269,384,228.2,384,184c0-79.4-64.6-144-144-144S96,104.6,96,184c0,43.7,19.9,84.8,53.6,112H81.1l18.9-34.5l-2-3.8
	c-4.4-8.5-8-17.1-10.7-25.5l-1.2-3.9L56,218.2v-68.5l30.2-10.1l1.2-3.9c2.7-8.5,6.3-17.1,10.7-25.5l1.9-3.6L85.7,78.1l48.4-48.4
	L162.7,44l3.6-1.9c8.5-4.4,17.1-8,25.5-10.7l3.9-1.2L205.8,0h68.5l10.1,30.2l3.9,1.2c8.5,2.7,17.1,6.2,25.5,10.7l3.6,1.9l28.6-14.3
	l48.4,48.4L380,106.7l1.9,3.6c4.4,8.5,8,17.1,10.7,25.5l1.2,3.9l30.2,10.1v68.5l-30.2,10.1l-1.2,3.9c-2.7,8.5-6.3,17.1-10.7,25.5
	l-1.9,3.6L394.3,289.9z"/>
</svg>
