<svg fill="#fff" height="512" viewBox="0 0 64 64" width="512" xmlns="http://www.w3.org/2000/svg"><path d="m8 8h26v10h-26z"/><path d="m8 46h20v10h-20z"/><path d="m46 8.414-4.414-4.414h-.586v5h5z"/><path d="m32 35.708v-9.708a1 1 0 0 1 .606-.919l13.394-5.74v-8.341h-6a1 1 0 0 1 -1-1v-6h-34a1 1 0 0 0 -1 1v54a1 1 0 0 0 1 1h40a1 1 0 0 0 1-1v-2.486l-5.206-3.714a21.04 21.04 0 0 1 -8.794-17.092zm-26-28.708a1 1 0 0 1 1-1h28a1 1 0 0 1 1 1v12a1 1 0 0 1 -1 1h-28a1 1 0 0 1 -1-1zm24 50a1 1 0 0 1 -1 1h-22a1 1 0 0 1 -1-1v-12a1 1 0 0 1 1-1h22a1 1 0 0 1 1 1zm0-18h-24v-2h24zm0-6h-24v-2h24zm0-6h-24v-2h24z"/><path d="m47 21.088-13 5.571v9.049a19.037 19.037 0 0 0 7.956 15.461l5.044 3.602 5.044-3.6a19.037 19.037 0 0 0 7.956-15.463v-9.049zm11 14.222a16.919 16.919 0 0 1 -6.38 13.275l-3.995 3.2a1 1 0 0 1 -1.25 0l-3.995-3.2a16.919 16.919 0 0 1 -6.38-13.275v-6.31a1 1 0 0 1 .628-.929l10-4a1.007 1.007 0 0 1 .744 0l10 4a1 1 0 0 1 .628.929z"/><path d="m38 29.677v5.633a14.924 14.924 0 0 0 5.629 11.712l3.371 2.698 3.371-2.7a14.924 14.924 0 0 0 5.629-11.71v-5.633l-9-3.6z"/></svg>