<svg fill="#fff" id="Capa_1" enable-background="new 0 0 512 512" height="512" viewBox="0 0 512 512" width="512" xmlns="http://www.w3.org/2000/svg"><g><g><path d="m466.344 398.663c-16.331 0-30.656-21.699-30.656-46.436v-228.385h61.312v228.385c0 24.737-14.325 46.436-30.656 46.436z"/><path d="m405.688 352.226c0-.462.312-352.226.312-352.226h-303.707c-2.408 0-4.36 1.952-4.36 4.36v161.228c4.581-1.227 9.589-1.979 15.029-1.979 22.014 0 36.971 12.266 45.007 18.854.099.081.202.166.31.254.268.028.524.056.761.081 2.057.216 4.473.472 7.139.863 2.44-1.719 5.409-2.736 8.62-2.736h156.947c8.284 0 15 6.716 15 15s-6.716 15-15 15h-120.44c4.313 6.821 6.748 13.844 8.206 20.144h112.218c8.284 0 15 6.716 15 15s-6.716 15-15 15h-99.271c3.238 5.623 6.127 12.358 7.542 20.206h91.442c8.284 0 15 6.716 15 15s-6.716 15-15 15h-93.963c-4.124 11.53-11.026 19.953-15.414 25.304-.08.098-.165.201-.252.308-.028.268-.056.525-.08.762-.884 8.404-2.4 22.733-11.382 36.025v55.333l253.815-.228c.357 0 .695-.065 1.025-.152-32.915-.781-59.504-34.74-59.504-76.401zm-74.977-191.475h-155.384c-8.284 0-15-6.716-15-15s6.716-15 15-15h155.384c8.284 0 15 6.716 15 15s-6.716 15-15 15zm0-50.175h-155.384c-8.284 0-15-6.716-15-15s6.716-15 15-15h155.384c8.284 0 15 6.716 15 15s-6.716 15-15 15zm-19.269 250.874h-24.642c-8.284 0-15-6.716-15-15s6.716-15 15-15h24.642c8.284 0 15 6.716 15 15s-6.715 15-15 15z"/></g><g><g><path d="m159.056 400.342c-.241.025-.504.053-.777.082-.106.087-.21.172-.309.253-5.98 4.904-15.797 12.948-29.499 16.744v74.582l34.013 18.624c1.678.918 3.475 1.372 5.266 1.372 2.374 0 4.738-.798 6.799-2.37 3.617-2.758 5.804-7.518 5.804-12.63v-100.824c-8.3 2.796-15.99 3.609-21.297 4.167z"/><path d="m67.954 400.677c-.099-.081-.202-.166-.31-.254-.272-.029-.534-.057-.775-.082-5.309-.558-12.999-1.371-21.298-4.167v100.826c0 5.112 2.187 9.872 5.804 12.63 3.616 2.759 8.163 3.134 12.065.998l35.032-19.182v-73.756c-14.235-3.671-24.391-11.989-30.518-17.013z"/></g><path d="m112.962 389.532c-11.286 0-19.437-6.683-25.986-12.053-2.723-2.234-5.54-4.543-7.401-5.315-2.105-.873-5.902-1.272-9.572-1.659-8.287-.872-18.601-1.957-26.311-9.666-7.709-7.71-8.795-18.023-9.666-26.311-.387-3.671-.785-7.467-1.659-9.573-.771-1.86-3.08-4.677-5.314-7.401-5.37-6.547-12.053-14.697-12.053-25.984 0-11.286 6.684-19.436 12.054-25.985 2.234-2.724 4.543-5.541 5.315-7.401.873-2.106 1.272-5.902 1.658-9.572.872-8.288 1.957-18.602 9.667-26.311 7.709-7.709 18.023-8.794 26.31-9.666 3.672-.386 7.467-.785 9.573-1.658 1.859-.771 4.676-3.081 7.4-5.315 6.549-5.37 14.699-12.053 25.986-12.053 11.286 0 19.436 6.683 25.985 12.053 2.724 2.234 5.541 4.544 7.402 5.315 2.105.873 5.901 1.273 9.572 1.659 8.287.871 18.601 1.956 26.31 9.666 7.71 7.709 8.795 18.023 9.667 26.311.386 3.671.785 7.466 1.659 9.572.77 1.86 3.08 4.677 5.314 7.401 5.37 6.548 12.053 14.699 12.053 25.985s-6.683 19.436-12.053 25.985c-2.234 2.724-4.543 5.541-5.315 7.401-.874 2.107-1.273 5.903-1.659 9.574-.872 8.287-1.956 18.6-9.666 26.309-7.709 7.71-18.023 8.795-26.31 9.666-3.671.386-7.467.785-9.573 1.659-1.859.771-4.676 3.081-7.401 5.315-6.55 5.369-14.701 12.052-25.986 12.052z"/></g></g></svg>