<?xml version="1.0" encoding="iso-8859-1"?>
<!-- Generator: Adobe Illustrator 19.0.0, SVG Export Plug-In . SVG Version: 6.00 Build 0)  -->
<svg fill="#fff" version="1.1" id="Capa_1" xmlns="http://www.w3.org/2000/svg" xmlns:xlink="http://www.w3.org/1999/xlink" x="0px" y="0px"
	 viewBox="0 0 512 512" style="enable-background:new 0 0 512 512;" xml:space="preserve">
<g>
	<g>
		<polygon points="251,382 251,475.787 344.787,382 		"/>
	</g>
</g>
<g>
	<g>
		<path d="M190.5,177c-24.813,0-45,20.187-45,45s20.187,45,45,45s45-20.187,45-45S215.313,177,190.5,177z M190.5,237
			c-8.271,0-15-6.729-15-15s6.729-15,15-15s15,6.729,15,15S198.771,237,190.5,237z"/>
	</g>
</g>
<g>
	<g>
		<rect width="381" height="62"/>
	</g>
</g>
<g>
	<g>
		<path d="M0,92v420h221V352h160V92H0z M290.5,236.999h-26.509c-1.948,9.561-5.731,18.46-10.948,26.329l18.775,18.775
			l-21.213,21.213l-18.775-18.775c-7.869,5.218-16.768,9-26.33,10.948V322h-30v-26.509c-9.562-1.949-18.461-5.731-26.33-10.948
			l-18.775,18.775l-21.213-21.213l18.775-18.775c-5.217-7.869-9-16.768-10.948-26.329H90.5V207h26.509
			c1.948-9.561,5.731-18.46,10.948-26.329l-18.775-18.775l21.213-21.213l18.775,18.775c7.869-5.218,16.768-9,26.33-10.948V122h30
			v26.509c9.562,1.949,18.461,5.731,26.33,10.948l18.775-18.775l21.213,21.213l-18.775,18.775c5.217,7.869,9,16.768,10.948,26.329
			H290.5V236.999z"/>
	</g>
</g>
<g>
	<g>
		<polygon points="257.213,512 381,512 381,388.213 		"/>
	</g>
</g>
<g>
	<g>
		<rect x="412" y="90" width="100" height="100"/>
	</g>
</g>
<g>
	<g>
		<polygon points="412,423 412,427.1 462,511.742 512,427.1 512,423 		"/>
	</g>
</g>
<g>
	<g>
		<rect x="412" width="100" height="60"/>
	</g>
</g>
<g>
	<g>
		<rect x="412" y="220" width="100" height="173"/>
	</g>
</g>
<g>
</g>
<g>
</g>
<g>
</g>
<g>
</g>
<g>
</g>
<g>
</g>
<g>
</g>
<g>
</g>
<g>
</g>
<g>
</g>
<g>
</g>
<g>
</g>
<g>
</g>
<g>
</g>
<g>
</g>
</svg>
